<?xml version="1.0" encoding="UTF-8"?>
<svg xmlns="http://www.w3.org/2000/svg" xmlns:xlink="http://www.w3.org/1999/xlink" width="841.8898pt" height="595.2756pt" viewBox="0 0 841.8898 595.2756" version="1.1">
<g id="surface1">
<path style=" stroke:none;fill-rule:evenodd;fill:rgb(10.195923%,10.195923%,9.411621%);fill-opacity:1;" d="M 133.625 127.953125 L 137.539063 127.953125 L 137.539063 476.957031 L 133.625 476.957031 Z M 133.625 127.953125 "/>
<path style=" stroke:none;fill-rule:evenodd;fill:rgb(10.195923%,10.195923%,9.411621%);fill-opacity:1;" d="M 685.5625 127.953125 L 689.472656 127.953125 L 689.472656 476.957031 L 685.5625 476.957031 Z M 685.5625 127.953125 "/>
<path style=" stroke:none;fill-rule:evenodd;fill:rgb(10.195923%,10.195923%,9.411621%);fill-opacity:1;" d="M 593.730469 343.859375 L 597.644531 343.859375 L 597.644531 426.28125 L 593.730469 426.28125 Z M 593.730469 343.859375 "/>
<path style=" stroke:none;fill-rule:evenodd;fill:rgb(10.195923%,10.195923%,9.411621%);fill-opacity:1;" d="M 501.371094 59.304688 L 505.28125 59.304688 L 505.28125 545.605469 L 501.371094 545.605469 Z M 501.371094 59.304688 "/>
<path style=" stroke:none;fill-rule:evenodd;fill:rgb(10.195923%,10.195923%,9.411621%);fill-opacity:1;" d="M 408.886719 26.339844 L 412.800781 26.339844 L 412.800781 568.933594 L 408.886719 568.933594 Z M 408.886719 26.339844 "/>
<path style=" stroke:none;fill-rule:evenodd;fill:rgb(10.195923%,10.195923%,9.411621%);fill-opacity:1;" d="M 229.027344 94.519531 L 225.117188 94.519531 L 225.117188 510.390625 L 229.027344 510.390625 Z M 229.027344 94.519531 "/>
<path style=" stroke:none;fill-rule:evenodd;fill:rgb(10.195923%,10.195923%,9.411621%);fill-opacity:1;" d="M 321.390625 59.304688 L 317.476563 59.304688 L 317.476563 545.605469 L 321.390625 545.605469 Z M 321.390625 59.304688 "/>
<path style=" stroke:none;fill-rule:evenodd;fill:rgb(10.195923%,10.195923%,9.411621%);fill-opacity:1;" d="M 593.730469 445.046875 L 597.644531 445.046875 L 597.644531 510.390625 L 593.730469 510.390625 Z M 593.730469 445.046875 "/>
<path style=" stroke:none;fill-rule:evenodd;fill:rgb(10.195923%,10.195923%,9.411621%);fill-opacity:1;" d="M 593.730469 94.519531 L 597.644531 94.519531 L 597.644531 275.589844 L 593.730469 275.589844 Z M 593.730469 94.519531 "/>
<path style=" stroke:none;fill-rule:evenodd;fill:rgb(10.195923%,10.195923%,9.411621%);fill-opacity:1;" d="M 206.6875 334.023438 L 175.121094 334.023438 L 175.121094 319.261719 L 202.773438 319.261719 L 202.773438 284.875 L 175.121094 284.875 L 175.121094 270.175781 L 204.640625 270.175781 L 204.640625 235.996094 L 133.625 235.996094 L 133.625 368.40625 L 206.6875 368.40625 Z M 206.6875 334.023438 "/>
<path style=" stroke:none;fill-rule:evenodd;fill:rgb(100%,100%,100%);fill-opacity:1;" d="M 152.492188 352.632813 L 152.492188 251.320313 L 191.324219 251.320313 L 191.324219 256 L 157.175781 256 L 157.175781 299.664063 L 188.507813 299.664063 L 188.507813 304.347656 L 157.175781 304.347656 L 157.175781 347.953125 L 193.25 347.953125 L 193.25 352.632813 Z M 152.492188 352.632813 "/>
<path style=" stroke:none;fill-rule:evenodd;fill:rgb(10.195923%,10.195923%,9.411621%);fill-opacity:1;" d="M 295.707031 290.507813 L 266.890625 290.507813 L 266.890625 270.175781 L 296.414063 270.175781 L 296.414063 235.996094 L 225.398438 235.996094 L 225.398438 368.40625 L 266.890625 368.40625 L 266.890625 324.894531 L 295.707031 324.894531 Z M 295.707031 290.507813 "/>
<path style=" stroke:none;fill-rule:evenodd;fill:rgb(100%,100%,100%);fill-opacity:1;" d="M 244.558594 309.980469 L 244.558594 251.320313 L 283.390625 251.320313 L 283.390625 256 L 249.242188 256 L 249.242188 305.296875 L 280.574219 305.296875 L 280.574219 309.980469 L 249.242188 309.980469 L 249.242188 352.632813 L 244.558594 352.632813 Z M 244.558594 309.980469 "/>
<path style=" stroke:none;fill-rule:evenodd;fill:rgb(10.195923%,10.195923%,9.411621%);fill-opacity:1;" d="M 391.414063 334.023438 L 359.847656 334.023438 L 359.847656 319.261719 L 387.5 319.261719 L 387.5 284.875 L 359.847656 284.875 L 359.847656 270.175781 L 389.371094 270.175781 L 389.371094 235.996094 L 318.355469 235.996094 L 318.355469 368.40625 L 391.414063 368.40625 Z M 391.414063 334.023438 "/>
<path style=" stroke:none;fill-rule:evenodd;fill:rgb(100%,100%,100%);fill-opacity:1;" d="M 336.507813 352.632813 L 336.507813 251.320313 L 375.339844 251.320313 L 375.339844 256 L 341.191406 256 L 341.191406 299.664063 L 372.527344 299.664063 L 372.527344 304.347656 L 341.191406 304.347656 L 341.191406 347.953125 L 377.269531 347.953125 L 377.269531 352.632813 Z M 336.507813 352.632813 "/>
<path style=" stroke:none;fill-rule:evenodd;fill:rgb(10.195923%,10.195923%,9.411621%);fill-opacity:1;" d="M 440.730469 235.996094 L 475.414063 287.265625 L 476.703125 287.265625 L 476.703125 235.996094 L 517.542969 235.996094 L 517.542969 368.40625 L 486.667969 368.40625 L 451.363281 314.832031 L 450.339844 314.832031 L 450.339844 368.40625 L 412.660156 368.40625 L 412.660156 235.996094 Z M 440.730469 235.996094 "/>
<path style=" stroke:none;fill-rule:evenodd;fill:rgb(100%,100%,100%);fill-opacity:1;" d="M 428.382813 251.320313 L 433.0625 251.320313 L 493.832031 343.050781 L 493.832031 251.320313 L 498.511719 251.320313 L 498.511719 352.632813 L 493.832031 352.632813 L 433.0625 260.375 L 433.0625 352.632813 L 428.382813 352.632813 Z M 428.382813 251.320313 "/>
<path style=" stroke:none;fill-rule:evenodd;fill:rgb(10.195923%,10.195923%,9.411621%);fill-opacity:1;" d="M 538.542969 235.996094 L 538.542969 368.40625 L 584.695313 368.40625 C 584.695313 368.40625 647.300781 364.5625 647.300781 304.449219 C 647.300781 244.335938 590.742188 235.996094 590.742188 235.996094 Z M 579.359375 275.28125 L 579.359375 330.59375 C 613.390625 330.050781 616.394531 274.0625 579.359375 275.28125 "/>
<path style=" stroke:none;fill-rule:evenodd;fill:rgb(100%,100%,100%);fill-opacity:1;" d="M 557.589844 251.320313 L 562.273438 251.320313 C 567.785156 251.734375 624.320313 244.375 629.0625 301.761719 C 629.0625 301.761719 632.753906 355.945313 562.273438 352.632813 L 557.589844 352.632813 Z M 562.273438 255.046875 C 562.273438 255.046875 619.578125 248.527344 624.792969 301.882813 C 624.792969 301.882813 625.890625 353.339844 562.273438 348.597656 Z M 562.273438 255.046875 "/>
<path style=" stroke:none;fill-rule:evenodd;fill:rgb(10.195923%,10.195923%,9.411621%);fill-opacity:1;" d="M 708.265625 224.0625 L 666.769531 224.0625 L 666.769531 180.164063 L 708.265625 180.164063 Z M 708.265625 235.433594 L 666.769531 235.433594 L 666.769531 368.40625 L 708.265625 368.40625 Z M 708.265625 235.433594 "/>
<path style=" stroke:none;fill-rule:evenodd;fill:rgb(100%,100%,100%);fill-opacity:1;" d="M 684.757813 251.320313 L 689.441406 251.320313 L 689.441406 352.632813 L 684.757813 352.632813 Z M 684.757813 251.320313 "/>
<path style=" stroke:none;fill-rule:evenodd;fill:rgb(100%,100%,100%);fill-opacity:1;" d="M 684.757813 208.007813 L 689.441406 208.007813 L 689.441406 196.917969 L 684.757813 196.917969 Z M 684.757813 208.007813 "/>
<path style=" stroke:none;fill-rule:nonzero;fill:rgb(10.195923%,10.195923%,9.411621%);fill-opacity:1;" d="M 241.847656 416.640625 C 241.847656 415.003906 241.53125 413.84375 240.898438 413.191406 C 240.265625 412.535156 239.152344 412.207031 237.554688 412.207031 L 232.859375 412.207031 L 232.859375 432.582031 L 237.652344 432.582031 C 239.183594 432.582031 240.265625 432.28125 240.898438 431.679688 C 241.53125 431.082031 241.847656 430.085938 241.847656 428.722656 Z M 242.148438 441.828125 C 242.148438 440.191406 241.847656 439.019531 241.25 438.308594 C 240.648438 437.597656 239.449219 437.246094 237.652344 437.246094 L 232.859375 437.246094 L 232.859375 459.007813 L 237.554688 459.007813 C 240.617188 459.007813 242.148438 457.535156 242.148438 454.589844 Z M 226.367188 464.246094 L 226.367188 406.972656 L 237.539063 406.972656 C 241.332031 406.972656 244.011719 407.734375 245.578125 409.261719 C 247.140625 410.789063 247.921875 413.300781 247.921875 416.789063 L 247.921875 428.246094 C 247.921875 431.84375 246.492188 433.972656 243.628906 434.625 C 244.996094 434.84375 246.175781 435.429688 247.15625 436.386719 C 248.140625 437.339844 248.640625 438.855469 248.640625 440.925781 L 248.640625 454.589844 C 248.640625 458.027344 247.722656 460.496094 245.910156 461.996094 C 244.078125 463.496094 241.28125 464.246094 237.503906 464.246094 Z M 226.367188 464.246094 "/>
<path style=" stroke:none;fill-rule:nonzero;fill:rgb(10.195923%,10.195923%,9.411621%);fill-opacity:1;" d="M 283.410156 464.246094 L 283.410156 406.972656 L 301.984375 406.972656 L 301.984375 412.207031 L 289.898438 412.207031 L 289.898438 432.5 L 302.300781 432.5 L 302.300781 437.734375 L 289.898438 437.734375 L 289.898438 459.007813 L 302.382813 459.007813 L 302.382813 464.246094 Z M 283.410156 464.246094 "/>
<path style=" stroke:none;fill-rule:nonzero;fill:rgb(10.195923%,10.195923%,9.411621%);fill-opacity:1;" d="M 384.300781 464.246094 L 384.300781 406.972656 L 390.792969 406.972656 L 390.792969 464.246094 Z M 384.300781 464.246094 "/>
<path style=" stroke:none;fill-rule:nonzero;fill:rgb(10.195923%,10.195923%,9.411621%);fill-opacity:1;" d="M 443.445313 464.246094 L 431.160156 436.097656 L 431.160156 464.246094 L 424.671875 464.246094 L 424.671875 406.972656 L 431.160156 406.972656 L 431.160156 431.679688 L 442.945313 406.972656 L 449.9375 406.972656 L 436.65625 433.070313 L 450.835938 464.246094 Z M 443.445313 464.246094 "/>
<path style=" stroke:none;fill-rule:nonzero;fill:rgb(10.195923%,10.195923%,9.411621%);fill-opacity:1;" d="M 479.96875 464.246094 L 479.96875 412.207031 L 472.078125 412.207031 L 472.078125 406.972656 L 494.148438 406.972656 L 494.148438 412.207031 L 486.257813 412.207031 L 486.257813 464.246094 Z M 479.96875 464.246094 "/>
<path style=" stroke:none;fill-rule:nonzero;fill:rgb(10.195923%,10.195923%,9.411621%);fill-opacity:1;" d="M 541.3125 464.246094 L 539.816406 454.671875 L 529.328125 454.671875 L 527.832031 464.246094 L 521.539063 464.246094 L 531.128906 406.972656 L 538.71875 406.972656 L 547.804688 464.246094 Z M 539.015625 449.761719 C 538.285156 444.800781 537.550781 439.945313 536.820313 435.199219 C 536.085938 430.453125 535.386719 425.519531 534.722656 420.390625 C 533.988281 425.519531 533.242188 430.453125 532.476563 435.199219 C 531.710938 439.945313 530.925781 444.800781 530.128906 449.761719 Z M 539.015625 449.761719 "/>
<path style=" stroke:none;fill-rule:evenodd;fill:rgb(10.195923%,10.195923%,9.411621%);fill-opacity:1;" d="M 591.289063 447.226563 C 591.289063 446.355469 591.257813 445.644531 591.191406 445.097656 C 591.125 444.554688 591.007813 444.078125 590.839844 443.667969 C 590.675781 443.257813 590.457031 442.875 590.191406 442.523438 C 589.925781 442.167969 589.59375 441.773438 589.191406 441.335938 C 587.460938 439.699219 585.714844 438.199219 583.949219 436.835938 C 582.1875 435.472656 580.304688 433.808594 578.308594 431.84375 C 577.175781 430.753906 576.511719 429.636719 576.3125 428.492188 C 576.109375 427.34375 576.011719 425.980469 576.011719 424.398438 L 576.011719 415.808594 C 576.011719 409.480469 579.640625 406.316406 586.898438 406.316406 C 590.890625 406.316406 593.652344 407.082031 595.183594 408.609375 C 596.71875 410.136719 597.480469 412.535156 597.480469 415.808594 L 597.480469 426.28125 L 591.492188 426.28125 L 591.492188 416.546875 C 591.492188 415.074219 591.191406 413.898438 590.59375 413.027344 C 589.992188 412.15625 588.828125 411.71875 587.097656 411.71875 C 584.035156 411.71875 582.503906 413.082031 582.503906 415.808594 L 582.503906 424.316406 C 582.503906 425.519531 582.601563 426.390625 582.800781 426.9375 C 583 427.480469 583.433594 428.082031 584.101563 428.734375 C 585.765625 430.535156 587.496094 432.105469 589.292969 433.441406 C 591.089844 434.777344 592.886719 436.316406 594.6875 438.0625 C 595.882813 439.261719 596.699219 440.519531 597.132813 441.828125 C 597.566406 443.136719 597.78125 444.9375 597.78125 447.226563 L 597.78125 455.410156 C 597.78125 458.519531 596.964844 460.875 595.335938 462.484375 C 593.980469 463.820313 591.8125 464.601563 588.828125 464.828125 L 587.652344 471.445313 L 581.53125 471.445313 L 584.746094 464.804688 C 582.039063 464.546875 579.992188 463.773438 578.605469 462.484375 C 576.875 460.875 576.011719 458.519531 576.011719 455.410156 L 576.011719 443.21875 L 582.203125 443.21875 L 582.203125 454.671875 C 582.203125 456.144531 582.535156 457.34375 583.203125 458.273438 C 583.867188 459.199219 585.03125 459.664063 586.695313 459.664063 C 588.359375 459.664063 589.542969 459.292969 590.242188 458.558594 C 590.941406 457.820313 591.289063 456.773438 591.289063 455.410156 Z M 591.289063 447.226563 "/>
<path style=" stroke:none;fill-rule:evenodd;fill:rgb(10.195923%,10.195923%,9.411621%);fill-opacity:1;" d="M 350.992188 447.226563 C 350.992188 446.355469 350.960938 445.644531 350.894531 445.097656 C 350.828125 444.554688 350.710938 444.078125 350.542969 443.667969 C 350.378906 443.257813 350.160156 442.875 349.894531 442.523438 C 349.628906 442.167969 349.296875 441.773438 348.898438 441.335938 C 347.164063 439.699219 345.417969 438.199219 343.652344 436.835938 C 341.890625 435.472656 340.007813 433.808594 338.011719 431.84375 C 336.878906 430.753906 336.214844 429.636719 336.015625 428.492188 C 335.8125 427.34375 335.714844 425.980469 335.714844 424.398438 L 335.714844 415.808594 C 335.714844 409.480469 339.34375 406.316406 346.601563 406.316406 C 350.59375 406.316406 353.355469 407.082031 354.886719 408.609375 C 356.421875 410.136719 357.183594 412.535156 357.183594 415.808594 L 357.183594 426.28125 L 351.195313 426.28125 L 351.195313 416.546875 C 351.195313 415.074219 350.894531 413.898438 350.296875 413.027344 C 349.695313 412.15625 348.53125 411.71875 346.800781 411.71875 C 343.738281 411.71875 342.207031 413.082031 342.207031 415.808594 L 342.207031 424.316406 C 342.207031 425.519531 342.304688 426.390625 342.503906 426.9375 C 342.703125 427.480469 343.136719 428.082031 343.804688 428.734375 C 345.46875 430.535156 347.199219 432.105469 348.996094 433.441406 C 350.792969 434.777344 352.589844 436.316406 354.390625 438.0625 C 355.585938 439.261719 356.402344 440.519531 356.835938 441.828125 C 357.269531 443.136719 357.484375 444.9375 357.484375 447.226563 L 357.484375 455.410156 C 357.484375 458.519531 356.667969 460.875 355.039063 462.484375 C 353.683594 463.820313 351.515625 464.601563 348.53125 464.828125 L 347.351563 471.445313 L 341.234375 471.445313 L 344.449219 464.804688 C 341.742188 464.546875 339.695313 463.773438 338.3125 462.484375 C 336.578125 460.875 335.714844 458.519531 335.714844 455.410156 L 335.714844 443.21875 L 341.90625 443.21875 L 341.90625 454.671875 C 341.90625 456.144531 342.238281 457.34375 342.90625 458.273438 C 343.570313 459.199219 344.734375 459.664063 346.398438 459.664063 C 348.0625 459.664063 349.246094 459.292969 349.945313 458.558594 C 350.644531 457.820313 350.992188 456.773438 350.992188 455.410156 Z M 350.992188 447.226563 "/>
<path style=" stroke:none;fill-rule:nonzero;fill:rgb(10.195923%,10.195923%,9.411621%);fill-opacity:1;" d="M 384.304688 397.777344 L 384.304688 403.71875 L 390.792969 403.71875 L 390.792969 397.777344 Z M 384.304688 397.777344 "/>
<path style=" stroke:none;fill-rule:evenodd;fill:rgb(10.195923%,10.195923%,9.411621%);fill-opacity:1;" d="M 590.207031 207.683594 C 584.933594 205.152344 582.429688 204.695313 578.472656 203.164063 C 565.019531 197.621094 557.808594 189.386719 558.183594 173.914063 C 560.121094 158.199219 566.582031 151.148438 563.675781 141.21875 C 562.679688 137.480469 560.417969 133.578125 557.191406 130.777344 C 563.296875 125.691406 567.738281 121.46875 571.476563 112.480469 C 579.417969 118.832031 588.1875 114.390625 595.535156 114.257813 C 602.855469 114.390625 611.625 118.859375 619.589844 112.507813 C 623.332031 121.46875 627.746094 125.691406 633.90625 130.777344 C 630.625 133.578125 628.363281 137.480469 627.421875 141.273438 C 624.460938 151.121094 630.921875 158.199219 632.882813 173.914063 C 633.234375 189.386719 626.023438 197.621094 612.648438 203.191406 C 608.640625 204.722656 606.109375 205.152344 600.863281 207.738281 C 597.875 209.242188 596.421875 211.449219 595.535156 213.199219 C 594.675781 211.421875 593.195313 209.242188 590.207031 207.683594 "/>
<path style=" stroke:none;fill-rule:evenodd;fill:rgb(100%,100%,100%);fill-opacity:1;" d="M 583.882813 204.347656 C 578.796875 203 575.515625 201.332031 571.964844 199.289063 L 571.964844 113.773438 C 575.164063 115.574219 577.398438 116.8125 583.882813 116.488281 L 583.882813 145.445313 C 584.261719 144.960938 584.636719 144.367188 585.121094 143.453125 C 588.429688 146.386719 591.257813 144.769531 595.535156 144.582031 C 599.785156 144.769531 602.613281 146.414063 605.921875 143.453125 C 606.296875 144.394531 606.703125 145.066406 607.132813 145.46875 L 607.132813 116.488281 C 613.589844 116.839844 616.121094 115.601563 619.054688 113.773438 L 619.054688 199.289063 C 615.5 201.277344 612.246094 203 607.105469 204.375 L 607.105469 176.898438 C 604.144531 178.890625 603.070313 178.917969 599.597656 179.941406 C 597.554688 180.722656 596.394531 181.472656 595.507813 182.980469 C 594.648438 181.449219 593.488281 180.667969 591.445313 179.941406 C 587.921875 178.890625 586.816406 178.757813 583.882813 176.871094 Z M 583.882813 204.347656 "/>
<path style=" stroke:none;fill-rule:evenodd;fill:rgb(10.195923%,10.195923%,9.411621%);fill-opacity:1;" d="M 614.78125 138.554688 L 613.757813 133.148438 C 613.675781 131.371094 611.953125 130.96875 611.121094 132.796875 L 611.121094 139.199219 C 611.199219 139.683594 611.308594 139.902344 611.683594 140.25 C 610.257813 140.25 608.671875 140.25 607.324219 140.25 C 607.757813 139.792969 607.835938 139.847656 607.890625 139.148438 L 607.890625 123.78125 C 607.835938 123.378906 607.703125 123.21875 607.324219 122.894531 L 611.683594 122.894531 C 611.441406 123.164063 611.199219 123.351563 611.121094 123.78125 L 611.121094 130.777344 L 616.394531 123.863281 C 616.582031 123.539063 616.527344 123.164063 616.015625 122.839844 L 619.058594 122.839844 C 618.84375 122.949219 618.277344 123.164063 617.875 123.703125 L 613.566406 129.515625 C 614.914063 129.378906 615.828125 129.246094 616.472656 130.992188 C 617.605469 136.242188 617.578125 140.734375 619.246094 137.855469 C 618.4375 141.730469 615.046875 140.464844 614.78125 138.554688 "/>
<path style=" stroke:none;fill-rule:evenodd;fill:rgb(10.195923%,10.195923%,9.411621%);fill-opacity:1;" d="M 571.867188 140.164063 C 572.597656 139.6875 572.824219 139.503906 572.882813 138.707031 L 572.882813 123.867188 C 572.882813 123.390625 572.597656 123.019531 572.0625 122.753906 C 577.820313 122.753906 579.90625 122.542969 581.65625 124.34375 C 583.40625 126.171875 582.871094 128.480469 580.726563 130.359375 C 584.335938 131.949219 584.140625 137.410156 581.851563 138.921875 C 579.625 140.296875 578.949219 140.164063 571.867188 140.164063 "/>
<path style=" stroke:none;fill-rule:evenodd;fill:rgb(100%,100%,100%);fill-opacity:1;" d="M 589.132813 138.527344 C 587.757813 136.492188 588.1875 134.289063 589.667969 133.328125 C 590.90625 132.613281 592.898438 132.695313 592.898438 135.335938 C 592.871094 136.820313 591.363281 137.316406 590.53125 136.628906 C 589.292969 138.527344 592.386719 140.8125 596.53125 137.894531 L 596.53125 123.722656 C 595.210938 123.78125 593.976563 123.78125 592.628906 123.972656 L 593.113281 122.953125 C 595.402344 122.953125 598.039063 122.953125 600.511719 122.925781 C 600.246094 123.285156 599.949219 123.476563 599.8125 124.027344 L 599.839844 138.308594 C 594.242188 140.289063 591.578125 141.253906 589.132813 138.527344 "/>
<path style=" stroke:none;fill-rule:evenodd;fill:rgb(100%,100%,100%);fill-opacity:1;" d="M 575.976563 129.863281 L 575.976563 123.40625 C 578.234375 123.40625 579.558594 124.507813 579.585938 126.554688 C 579.53125 128.816406 578.375 129.917969 575.976563 129.863281 "/>
<path style=" stroke:none;fill-rule:evenodd;fill:rgb(100%,100%,100%);fill-opacity:1;" d="M 576 138.960938 L 576 130.859375 C 579.515625 130.886719 580.535156 133.039063 580.5625 135.136719 C 580.535156 137.558594 579.003906 139.011719 576 138.960938 "/>
<path style=" stroke:none;fill-rule:evenodd;fill:rgb(10.195923%,10.195923%,9.411621%);fill-opacity:1;" d="M 577.5 198.371094 L 577.5 197.230469 C 578.425781 197.203125 578.644531 197.289063 578.644531 196.734375 L 578.644531 188.605469 L 577.363281 188.578125 C 578.671875 187.578125 579.460938 186.855469 581.152344 185.332031 L 581.152344 196.789063 C 581.125 197.289063 581.535156 197.230469 582.378906 197.230469 L 582.378906 198.371094 Z M 577.5 198.371094 "/>
<path style=" stroke:none;fill-rule:evenodd;fill:rgb(100%,100%,100%);fill-opacity:1;" d="M 605.46875 192.085938 C 605.472656 183.40625 596.507813 183.402344 596.511719 192.085938 C 596.503906 200.765625 605.46875 200.769531 605.46875 192.089844 Z M 605.46875 192.085938 "/>
<path style=" stroke:none;fill-rule:evenodd;fill:rgb(10.195923%,10.195923%,9.411621%);fill-opacity:1;" d="M 603.015625 192.085938 C 603.011719 199.855469 598.933594 199.851563 598.933594 192.085938 C 598.9375 184.320313 603.015625 184.320313 603.015625 192.085938 Z M 603.015625 192.085938 "/>
<path style=" stroke:none;fill-rule:evenodd;fill:rgb(10.195923%,10.195923%,9.411621%);fill-opacity:1;" d="M 610.65625 190.660156 L 610.921875 190.660156 C 611.835938 190.660156 612.53125 190.507813 612.960938 190.097656 C 613.445313 189.734375 613.710938 189.160156 613.710938 188.4375 C 613.710938 187.761719 613.492188 187.25 613.179688 186.886719 C 612.847656 186.464844 612.367188 186.3125 611.722656 186.3125 C 611.355469 186.3125 610.972656 186.363281 610.65625 186.527344 C 610.277344 186.675781 610.113281 186.773438 610.113281 186.886719 C 610.113281 186.9375 610.226563 187.039063 610.492188 187.300781 C 610.707031 187.5 610.808594 187.8125 610.808594 188.074219 C 610.808594 188.4375 610.707031 188.699219 610.492188 188.898438 C 610.226563 189.109375 609.960938 189.210938 609.582031 189.210938 C 609.199219 189.210938 608.882813 189.109375 608.667969 188.847656 C 608.402344 188.585938 608.289063 188.222656 608.289063 187.8125 C 608.289063 187.136719 608.617188 186.574219 609.316406 186.101563 C 610.011719 185.640625 610.859375 185.375 611.886719 185.375 C 613.011719 185.375 613.925781 185.6875 614.671875 186.261719 C 615.417969 186.886719 615.800781 187.613281 615.800781 188.484375 C 615.800781 189.160156 615.585938 189.734375 615.101563 190.195313 C 614.671875 190.609375 613.976563 191.019531 613.0625 191.234375 C 614.027344 191.496094 614.835938 191.90625 615.367188 192.519531 C 615.902344 193.09375 616.179688 193.867188 616.179688 194.753906 C 616.179688 195.839844 615.800781 196.714844 614.988281 197.390625 C 614.191406 198.0625 613.179688 198.375 611.886719 198.375 C 610.808594 198.375 609.960938 198.113281 609.25 197.652344 C 608.503906 197.125 608.1875 196.515625 608.1875 195.726563 C 608.1875 195.265625 608.289063 194.902344 608.554688 194.589844 C 608.832031 194.28125 609.199219 194.128906 609.632813 194.128906 C 609.960938 194.128906 610.277344 194.230469 610.492188 194.441406 C 610.707031 194.640625 610.808594 194.953125 610.808594 195.265625 C 610.808594 195.628906 610.65625 195.988281 610.378906 196.253906 C 610.113281 196.515625 609.960938 196.664063 609.960938 196.664063 C 609.960938 196.828125 610.164063 196.976563 610.542969 197.078125 C 610.921875 197.238281 611.355469 197.339844 611.886719 197.339844 C 612.53125 197.339844 613.113281 197.125 613.492188 196.664063 C 613.875 196.203125 614.078125 195.578125 614.078125 194.804688 C 614.078125 193.816406 613.8125 193.042969 613.277344 192.519531 C 612.796875 192.007813 611.988281 191.746094 611.023438 191.746094 C 610.972656 191.746094 610.921875 191.792969 610.808594 191.792969 C 610.757813 191.792969 610.65625 191.792969 610.65625 191.792969 Z M 610.65625 190.660156 "/>
<path style=" stroke:none;fill-rule:evenodd;fill:rgb(100%,100%,100%);fill-opacity:1;" d="M 591.832031 192.648438 C 591.511719 193.011719 591.152344 193.257813 590.734375 193.472656 C 590.363281 193.632813 589.898438 193.734375 589.429688 193.734375 C 588.378906 193.734375 587.605469 193.320313 586.925781 192.597656 C 586.296875 191.8125 585.988281 190.835938 585.988281 189.589844 C 585.988281 188.351563 586.296875 187.367188 587.023438 186.589844 C 587.703125 185.816406 588.640625 185.394531 589.734375 185.394531 C 591.042969 185.394531 592.089844 185.917969 592.867188 186.953125 C 593.605469 187.941406 594.011719 189.328125 594.011719 191.148438 C 594.011719 193.257813 593.542969 195.019531 592.65625 196.367188 C 591.769531 197.71875 590.574219 198.390625 589.167969 198.390625 C 588.378906 198.390625 587.703125 198.179688 587.136719 197.71875 C 586.605469 197.304688 586.296875 196.78125 586.296875 196.167969 C 586.296875 195.695313 586.457031 195.332031 586.667969 195.082031 C 586.925781 194.820313 587.234375 194.65625 587.605469 194.65625 C 587.960938 194.65625 588.230469 194.769531 588.429688 194.96875 C 588.699219 195.183594 588.800781 195.445313 588.800781 195.746094 C 588.800781 196.007813 588.699219 196.269531 588.492188 196.46875 C 588.332031 196.679688 588.230469 196.78125 588.230469 196.84375 C 588.230469 196.992188 588.332031 197.09375 588.589844 197.253906 C 588.800781 197.355469 589.058594 197.453125 589.378906 197.453125 C 590.105469 197.453125 590.683594 196.992188 591.152344 196.167969 C 591.558594 195.28125 591.832031 194.144531 591.832031 192.699219 Z M 591.832031 192.648438 "/>
<path style=" stroke:none;fill-rule:evenodd;fill:rgb(10.195923%,10.195923%,9.411621%);fill-opacity:1;" d="M 590.058594 186.429688 C 589.378906 186.429688 588.910156 186.691406 588.539063 187.265625 C 588.230469 187.777344 588.070313 188.550781 588.070313 189.589844 C 588.070313 190.574219 588.230469 191.347656 588.589844 191.921875 C 588.910156 192.433594 589.429688 192.699219 590.105469 192.699219 C 590.785156 192.699219 591.253906 192.433594 591.558594 191.972656 C 591.878906 191.511719 592.039063 190.726563 592.039063 189.75 C 592.039063 188.664063 591.878906 187.878906 591.511719 187.316406 C 591.203125 186.742188 590.683594 186.429688 590.058594 186.429688 "/>
<path style=" stroke:none;fill-rule:evenodd;fill:rgb(89.411926%,12.548828%,5.490112%);fill-opacity:1;" d="M 593.28125 179.839844 C 591.0625 178.90625 590.007813 178.738281 588.339844 178.171875 C 582.675781 176.125 579.636719 173.089844 579.792969 167.382813 C 580.609375 161.589844 583.332031 158.988281 582.105469 155.324219 C 581.6875 153.945313 580.734375 152.507813 579.375 151.476563 C 581.949219 149.601563 583.816406 148.042969 585.394531 144.726563 C 588.738281 147.070313 592.433594 145.433594 595.527344 145.382813 C 598.609375 145.433594 602.304688 147.078125 605.660156 144.738281 C 607.234375 148.042969 609.09375 149.601563 611.691406 151.476563 C 610.308594 152.507813 609.355469 153.945313 608.957031 155.34375 C 607.710938 158.976563 610.433594 161.589844 611.257813 167.382813 C 611.40625 173.089844 608.367188 176.125 602.734375 178.179688 C 601.046875 178.746094 599.980469 178.90625 597.769531 179.859375 C 596.511719 180.414063 595.902344 181.226563 595.527344 181.871094 C 595.164063 181.21875 594.542969 180.414063 593.28125 179.839844 "/>
<path style=" stroke:none;fill-rule:evenodd;fill:rgb(100%,100%,100%);fill-opacity:1;" d="M 595.238281 176.308594 C 591.039063 176.199219 586.007813 173.265625 585.121094 167.507813 C 584.636719 164.28125 585.683594 160.296875 589.507813 157.230469 C 588.96875 157.902344 588.242188 158.601563 587.785156 160.054688 C 587.003906 162.394531 587.191406 164.332031 587.945313 166.242188 C 589.613281 169.367188 592.0625 171.300781 595.320313 171.410156 C 600.214844 171.113281 602.503906 167.5625 603.066406 165.839844 C 603.527344 164.496094 604.277344 162.503906 602.691406 159.140625 C 602.179688 158.089844 601.34375 157.230469 601.34375 157.230469 C 603.605469 158.789063 606.136719 162.101563 605.785156 167.023438 C 605.464844 171.679688 601.210938 176.121094 595.238281 176.308594 "/>
<path style=" stroke:none;fill-rule:evenodd;fill:rgb(100%,100%,100%);fill-opacity:1;" d="M 595.480469 156.640625 L 594.730469 154.242188 L 592.277344 154.242188 L 594.199219 152.628906 L 593.449219 150.066406 L 595.539063 151.542969 L 597.515625 150.121094 L 596.789063 152.601563 L 598.738281 154.242188 L 596.289063 154.242188 Z M 595.480469 156.640625 "/>
</g>
</svg>
